<svg xmlns="http://www.w3.org/2000/svg" viewBox="0 0 110.66 110.66">
  <g id="AP" transform="translate(-1454 -792)">
    <circle id="Ellipse_164" data-name="Ellipse 164" cx="55.33" cy="55.33" r="55.33" transform="translate(1454 792)" fill="#f6f8fc"/>
    <g id="wounded" transform="translate(1484 815)">
      <path id="Path_1193" data-name="Path 1193" d="M297.246,471.1V450.4a1.123,1.123,0,0,0-2.246,0V471.1a1.123,1.123,0,0,0,2.246,0Z" transform="translate(-257.935 -408.224)" fill="#0a4595" stroke="#0a4595" stroke-width="1"/>
      <path id="Path_1194" data-name="Path 1194" d="M184.688,297.667h-3.255a1.151,1.151,0,0,0,0,2.246h6.758a1.151,1.151,0,0,0,0-2.246h-.962" transform="translate(-159.541 -277.897)" fill="#0a4595"/>
      <path id="Path_1195" data-name="Path 1195" d="M77.05,200.562a19.356,19.356,0,0,0-1.416-7.3,18.267,18.267,0,0,0-6.839-8.447l-3.519-2.335a14.6,14.6,0,1,0-17.495,1.235L46.253,184.8a49.236,49.236,0,0,0-14.61,16.4A5.2,5.2,0,0,0,31,203.695v.824a5.144,5.144,0,0,0,1.494,3.638,5.092,5.092,0,0,0,3.6,1.5h5.012v10.062a1.123,1.123,0,1,0,2.246,0V209.66H53.478a4.444,4.444,0,0,0,4.4-5.141l1.581-2.091a52.24,52.24,0,0,0,7.951-14.938c.092-.277.168-.513.237-.73a16.038,16.038,0,0,1,5.906,7.344,17.155,17.155,0,0,1,1.247,6.458v19.159a1.123,1.123,0,1,0,2.246,0ZM65.007,163.357,43.748,174.493a11.656,11.656,0,0,1-.281-4.567l19.691-8.291A12.426,12.426,0,0,1,65.007,163.357Zm-4.243-3.15-7.513,3.162-4.367-2.183A12.282,12.282,0,0,1,60.764,160.206Zm-13.786,2.537,3.546,1.773L44.133,167.2A12.383,12.383,0,0,1,46.978,162.744ZM44.5,176.638,66.337,165.2a12.34,12.34,0,0,1-21.265,12.527Q44.761,177.195,44.5,176.638Zm6.4,30.775H45.481l-2.057-17.486c.831-.746,1.7-1.449,2.578-2.134ZM34.1,206.577a2.906,2.906,0,0,1-.849-2.058v-.824a2.938,2.938,0,0,1,.361-1.411,47.063,47.063,0,0,1,7.779-10.413l1.041,8.8H38.862a1.123,1.123,0,1,0,0,2.246h3.819l.528,4.493H36.1A2.829,2.829,0,0,1,34.1,206.577Zm20.967.182a2.221,2.221,0,0,1-1.58.655h-.261L52.1,202.921h1.356a2.262,2.262,0,0,1,1.608,3.838Zm2.614-5.686-.864,1.142c-.052-.057-.089-.124-.143-.18a4.5,4.5,0,0,0-3.216-1.361H51.537L47.96,186.344l2.035-1.442a14.513,14.513,0,0,0,13.352-1l2.359,1.559c-.077.281-.2.694-.411,1.319A50.038,50.038,0,0,1,57.676,201.073Z" transform="translate(-31 -156.849)" fill="#0a4595" stroke="#0a4595" stroke-width="1"/>
    </g>
  </g>
</svg>
