<svg xmlns="http://www.w3.org/2000/svg" viewBox="0 0 110.66 110.66">
  <g id="Auto" transform="translate(-372 -792)">
    <circle id="Ellipse_162" data-name="Ellipse 162" cx="55.33" cy="55.33" r="55.33" transform="translate(372 792)" fill="#f6f8fc"/>
    <g id="car" transform="translate(394 822)">
      <path id="Path_1186" data-name="Path 1186" d="M34.76,222.367l-5.026-13.548A5.9,5.9,0,0,0,24.245,205h-35.9a5.875,5.875,0,0,0-5.49,3.819L-22.1,222.2l-2.064,1.909A8.067,8.067,0,0,0-27,230.243v19.74a5.869,5.869,0,0,0,5.869,5.84h3.706a5.869,5.869,0,0,0,5.869-5.84v-2.864H23.262v2.864a5.869,5.869,0,0,0,5.869,5.84h3.706a5.869,5.869,0,0,0,5.869-5.84V229.724a8.141,8.141,0,0,0-2.513-5.841ZM-14.5,209.773a3.036,3.036,0,0,1,2.85-1.966H24.259a3.057,3.057,0,0,1,2.85,1.966l4.38,11.793H28.218a9.63,9.63,0,0,0-19.052,0H-18.885Zm39.859,11.793H12a6.82,6.82,0,0,1,13.352,0Zm-39.718,28.416a3.053,3.053,0,0,1-3.061,3.033h-3.706a3.053,3.053,0,0,1-3.061-3.033V246.3a5.7,5.7,0,0,0,3.061.814h6.767Zm47.2,3.033H29.131a3.062,3.062,0,0,1-3.061-3.033v-2.864h6.767A5.7,5.7,0,0,0,35.9,246.3v3.678A3.053,3.053,0,0,1,32.837,253.016ZM35.9,241.307a3.038,3.038,0,0,1-3.061,3H-21.131a3.029,3.029,0,0,1-3.061-3h0V230.243a5.271,5.271,0,0,1,1.867-4.015l.056-.056,1.909-1.8H32.809l1.348,1.446c.014.028.056.042.07.07a5.291,5.291,0,0,1,1.657,3.833v11.583Z" transform="translate(27 -205)" fill="#0a4595" stroke="#0a4595" stroke-width="0.5"/>
      <path id="Path_1187" data-name="Path 1187" d="M33.338,384.4a1.408,1.408,0,0,0-1.4-1.4H21.4a1.408,1.408,0,0,0-1.4,1.4v7.3a1.408,1.408,0,0,0,1.4,1.4h10.53a1.408,1.408,0,0,0,1.4-1.4Zm-2.808,5.9H22.808v-4.493H30.53Z" transform="translate(-13.401 -358.009)" fill="#0a4595" stroke="#0a4595" stroke-width="0.5"/>
      <path id="Path_1188" data-name="Path 1188" d="M312.338,384.4a1.408,1.408,0,0,0-1.4-1.4H300.4a1.408,1.408,0,0,0-1.4,1.4v7.3a1.408,1.408,0,0,0,1.4,1.4h10.53a1.408,1.408,0,0,0,1.4-1.4Zm-2.808,5.9h-7.722v-4.493h7.722Z" transform="translate(-253.231 -358.009)" fill="#0a4595" stroke="#0a4595" stroke-width="0.5"/>
      <path id="Path_1189" data-name="Path 1189" d="M163.666,425H150.1a1.4,1.4,0,1,0,0,2.808h13.562a1.4,1.4,0,0,0,0-2.808Z" transform="translate(-124.032 -394.113)" fill="#0a4595" stroke="#0a4595" stroke-width="0.5"/>
      <path id="Path_1190" data-name="Path 1190" d="M163.666,394H150.1a1.4,1.4,0,0,0,0,2.808h13.562a1.4,1.4,0,0,0,0-2.808Z" transform="translate(-124.032 -367.465)" fill="#0a4595" stroke="#0a4595" stroke-width="0.5"/>
    </g>
  </g>
</svg>
