<svg xmlns="http://www.w3.org/2000/svg" viewBox="0 0 110.66 110.66">
  <g id="Hogar" transform="translate(-914 -792)">
    <circle id="Ellipse_163" data-name="Ellipse 163" cx="55.33" cy="55.33" r="55.33" transform="translate(914 792)" fill="#f6f8fc"/>
    <g id="house" transform="translate(938.433 814.598)">
      <path id="Path_1191" data-name="Path 1191" d="M12.6,167.716a5.379,5.379,0,0,0-1.875-3.7L5.4,159.451V146.469a1.805,1.805,0,0,0-1.805-1.805H-3.627a1.785,1.785,0,0,0-1.781,1.805v3.7l-9.136-7.786a5.387,5.387,0,0,0-7.043-.005l-25.52,21.644a5.413,5.413,0,0,0-.586,7.639,5.472,5.472,0,0,0,5.939,1.577v27.631a1.785,1.785,0,0,0,1.781,1.805H3.594A1.805,1.805,0,0,0,5.4,200.867V173.236a5.415,5.415,0,0,0,7.205-5.52ZM-1.821,148.274H1.813v8.082l-3.635-3.095Zm-9,50.787H-25.53V184.6h14.706v14.466Zm3.586,0V182.815a1.805,1.805,0,0,0-1.805-1.805H-27.335a1.785,1.785,0,0,0-1.781,1.805v16.247h-9.05V170.639L-18.075,153.6,1.813,170.623v28.439ZM8.576,169.306a1.806,1.806,0,0,1-2.546.2l-22.923-19.649a1.8,1.8,0,0,0-2.343-.006L-42.406,169.5a1.812,1.812,0,0,1-2.547-.194,1.806,1.806,0,0,1,.189-2.541l25.52-21.644a1.8,1.8,0,0,1,2.35,0L8.38,166.761A1.807,1.807,0,0,1,8.576,169.306Z" transform="translate(48.999 -141.068)" fill="#0a4595"/>
      <path id="Path_1192" data-name="Path 1192" d="M177.208,343.6h-6.89a1.111,1.111,0,0,0-1.108,1.123v6.74a1.111,1.111,0,0,0,1.108,1.123h6.89a1.123,1.123,0,0,0,1.123-1.123v-6.74A1.123,1.123,0,0,0,177.208,343.6Zm-1.108,6.74h-4.658v-4.493H176.1Z" transform="translate(-142.948 -319.227)" fill="#0a4595"/>
      <circle id="Ellipse_165" data-name="Ellipse 165" cx="1.805" cy="1.805" r="1.805" transform="translate(32.736 48.967)" fill="#0a4595"/>
    </g>
  </g>
</svg>
